<svg width="17" height="16" viewBox="0 0 17 16" fill="none" xmlns="http://www.w3.org/2000/svg">
<path d="M15.3415 4.16695L12.0081 1.38917C11.3901 0.874103 10.4923 0.874102 9.87419 1.38917L7.00814 3.77754C6.39006 4.29261 5.49227 4.29261 4.87419 3.77754L2.30798 1.63904C1.76521 1.18673 0.941162 1.57269 0.941162 2.27922V10.5527C0.941162 11.0474 1.16087 11.5164 1.54085 11.8331L4.87419 14.6109C5.18323 14.8684 5.56219 14.9972 5.94116 14.9972M5.94116 4.66669V14.6667M15.9412 9.66669C15.9412 11.5076 13.4412 14.6667 12.6078 14.6667C11.7745 14.6667 9.2745 11.5076 9.2745 9.66669C9.2745 7.82574 10.7669 6.33336 12.6078 6.33336C14.4488 6.33336 15.9412 7.82574 15.9412 9.66669Z" stroke="#757575" stroke-width="1.25" stroke-linecap="round"/>
</svg>
